<svg width="30" height="27" viewBox="0 0 30 27" fill="none" xmlns="http://www.w3.org/2000/svg">
<g filter="url(#filter0_d_1951_22446)">
<path d="M18.1042 7.06982H11.4348C11.2573 7.06982 11.1182 7.22183 11.1364 7.39783L11.6989 12.8199L12.2614 18.25L12.8299 23.7321C12.8461 23.8841 12.9751 24.0001 13.1283 24.0001H19.8583L18.1042 7.06982Z" fill="white"/>
<path d="M26.3385 23.6726L25.9171 19.6045L24.9353 10.1244L24.6469 7.33636C24.6308 7.18436 24.5018 7.06836 24.3486 7.06836H18.1045L19.8586 23.9986H26.0421C26.2175 24.0006 26.3567 23.8466 26.3385 23.6726Z" fill="#C50E1F"/>
</g>
<g filter="url(#filter1_d_1951_22446)">
<path d="M18.2012 19.6022L17.6387 14.1802L17.0762 8.75008L16.5096 3.268C16.4935 3.116 16.3644 3 16.2112 3H9.95508L11.7091 19.9302H17.9048C18.0802 19.9302 18.2193 19.7782 18.2012 19.6022Z" fill="white"/>
<path d="M3.29799 3C3.12057 3 2.98347 3.152 3.00161 3.328L3.28388 6.05404L4.26575 15.5342L4.69317 19.6622C4.7093 19.8142 4.83834 19.9302 4.99157 19.9302H11.7094L9.95536 3H3.29799Z" fill="#C50E1F"/>
</g>
<defs>
<filter id="filter0_d_1951_22446" x="8.13477" y="4.06836" width="21.2056" height="22.9316" filterUnits="userSpaceOnUse" color-interpolation-filters="sRGB">
<feFlood flood-opacity="0" result="BackgroundImageFix"/>
<feColorMatrix in="SourceAlpha" type="matrix" values="0 0 0 0 0 0 0 0 0 0 0 0 0 0 0 0 0 0 127 0" result="hardAlpha"/>
<feOffset/>
<feGaussianBlur stdDeviation="1.5"/>
<feComposite in2="hardAlpha" operator="out"/>
<feColorMatrix type="matrix" values="0 0 0 0 0 0 0 0 0 0 0 0 0 0 0 0 0 0 0.15 0"/>
<feBlend mode="normal" in2="BackgroundImageFix" result="effect1_dropShadow_1951_22446"/>
<feBlend mode="normal" in="SourceGraphic" in2="effect1_dropShadow_1951_22446" result="shape"/>
</filter>
<filter id="filter1_d_1951_22446" x="0" y="0" width="21.2026" height="22.9302" filterUnits="userSpaceOnUse" color-interpolation-filters="sRGB">
<feFlood flood-opacity="0" result="BackgroundImageFix"/>
<feColorMatrix in="SourceAlpha" type="matrix" values="0 0 0 0 0 0 0 0 0 0 0 0 0 0 0 0 0 0 127 0" result="hardAlpha"/>
<feOffset/>
<feGaussianBlur stdDeviation="1.5"/>
<feComposite in2="hardAlpha" operator="out"/>
<feColorMatrix type="matrix" values="0 0 0 0 0 0 0 0 0 0 0 0 0 0 0 0 0 0 0.15 0"/>
<feBlend mode="normal" in2="BackgroundImageFix" result="effect1_dropShadow_1951_22446"/>
<feBlend mode="normal" in="SourceGraphic" in2="effect1_dropShadow_1951_22446" result="shape"/>
</filter>
</defs>
</svg>
