<svg width="28" height="25" viewBox="0 0 28 25" fill="none" xmlns="http://www.w3.org/2000/svg">
<g filter="url(#filter0_d_1871_6464)">
<path d="M24.0067 22H9.61176C9.44083 22 9.29873 21.874 9.2802 21.71L9.16694 20.604L9.02484 19.208L8.88274 17.8119L8.74065 16.4159L8.73859 16.3899L8.59855 15.0199L8.45646 13.6238L8.38438 12.9258L8.3123 12.2278L8.16815 10.8318L8.02605 9.46174L8.02399 9.43574L7.87984 8.03971L7.59153 5.24764L7.48444 4.20362C7.4659 4.01561 7.6183 3.84961 7.816 3.84961H22.2006C22.3716 3.84961 22.5136 3.97361 22.5322 4.13962L22.6454 5.24564L22.7896 6.64168L22.9338 8.03771L23.0779 9.43374L23.1459 10.0858L23.2221 10.8298L23.3662 12.2258L23.4383 12.9238L23.5104 13.6218L23.6092 14.5699L23.6545 15.0179L23.7987 16.4139L23.9428 17.8099L24.087 19.206L24.2312 20.602L24.3382 21.644C24.3568 21.836 24.2044 22 24.0067 22Z" fill="#CE232D"/>
<path d="M22.7874 6.64408H7.73351L7.58936 5.24805H22.6433L22.7874 6.64408Z" fill="white"/>
<path d="M23.076 9.43558H8.02208L7.87793 8.03955H22.9318L23.076 9.43558Z" fill="white"/>
<path d="M23.3619 12.2281H8.31212L8.16797 10.832H23.2178L23.3619 12.2281Z" fill="white"/>
<path d="M23.6522 15.0196H8.59826L8.4541 13.6235H23.508L23.6048 14.5716L23.6522 15.0196Z" fill="white"/>
<path d="M23.9409 17.8116H8.88282L8.74072 16.4155H23.7967L23.9409 17.8116Z" fill="white"/>
<path d="M24.2287 20.604H9.16857L9.02441 19.208H24.0845L24.2287 20.604Z" fill="white"/>
</g>
<g filter="url(#filter1_d_1871_6464)">
<path d="M17.5248 19.1484H3.12983C2.9589 19.1484 2.81681 19.0224 2.79827 18.8584L2.67265 17.6364L2.5182 16.1244L2.36375 14.6123L1.90039 10.0742H16.9523L17.1088 11.5863L17.2653 13.0983L17.4218 14.6103L17.5783 16.1224L17.7348 17.6344L17.8543 18.7944C17.8748 18.9844 17.7204 19.1484 17.5248 19.1484Z" fill="#CE232D"/>
<path d="M16.5974 6.61013L16.0475 1.29001C16.031 1.126 15.8869 1 15.716 1H1.33134C1.1357 1 0.981252 1.164 1.00185 1.35401L1.54552 6.61013L1.90384 10.0742H16.9557L16.5974 6.61013Z" fill="#25418A"/>
<path d="M2.34742 3.29603C2.62721 3.29603 2.85402 3.07575 2.85402 2.80402C2.85402 2.53229 2.62721 2.31201 2.34742 2.31201C2.06763 2.31201 1.84082 2.53229 1.84082 2.80402C1.84082 3.07575 2.06763 3.29603 2.34742 3.29603Z" fill="white"/>
<path d="M4.17506 3.29603C4.45485 3.29603 4.68166 3.07575 4.68166 2.80402C4.68166 2.53229 4.45485 2.31201 4.17506 2.31201C3.89527 2.31201 3.66846 2.53229 3.66846 2.80402C3.66846 3.07575 3.89527 3.29603 4.17506 3.29603Z" fill="white"/>
<path d="M9.65406 3.29603C9.93385 3.29603 10.1607 3.07575 10.1607 2.80402C10.1607 2.53229 9.93385 2.31201 9.65406 2.31201C9.37427 2.31201 9.14746 2.53229 9.14746 2.80402C9.14746 3.07575 9.37427 3.29603 9.65406 3.29603Z" fill="white"/>
<path d="M11.4812 3.29603C11.761 3.29603 11.9878 3.07575 11.9878 2.80402C11.9878 2.53229 11.761 2.31201 11.4812 2.31201C11.2014 2.31201 10.9746 2.53229 10.9746 2.80402C10.9746 3.07575 11.2014 3.29603 11.4812 3.29603Z" fill="white"/>
<path d="M13.3079 3.29603C13.5877 3.29603 13.8145 3.07575 13.8145 2.80402C13.8145 2.53229 13.5877 2.31201 13.3079 2.31201C13.0281 2.31201 12.8013 2.53229 12.8013 2.80402C12.8013 3.07575 13.0281 3.29603 13.3079 3.29603Z" fill="white"/>
<path d="M15.134 3.29603C15.4138 3.29603 15.6406 3.07575 15.6406 2.80402C15.6406 2.53229 15.4138 2.31201 15.134 2.31201C14.8543 2.31201 14.6274 2.53229 14.6274 2.80402C14.6274 3.07575 14.8543 3.29603 15.134 3.29603Z" fill="white"/>
<path d="M6.00123 3.29603C6.28102 3.29603 6.50783 3.07575 6.50783 2.80402C6.50783 2.53229 6.28102 2.31201 6.00123 2.31201C5.72144 2.31201 5.49463 2.53229 5.49463 2.80402C5.49463 3.07575 5.72144 3.29603 6.00123 3.29603Z" fill="white"/>
<path d="M7.8274 3.29603C8.10719 3.29603 8.33401 3.07575 8.33401 2.80402C8.33401 2.53229 8.10719 2.31201 7.8274 2.31201C7.54761 2.31201 7.3208 2.53229 7.3208 2.80402C7.3208 3.07575 7.54761 3.29603 7.8274 3.29603Z" fill="white"/>
<path d="M2.75416 7.38783C3.03395 7.38783 3.26076 7.16755 3.26076 6.89582C3.26076 6.62409 3.03395 6.40381 2.75416 6.40381C2.47437 6.40381 2.24756 6.62409 2.24756 6.89582C2.24756 7.16755 2.47437 7.38783 2.75416 7.38783Z" fill="white"/>
<path d="M4.58033 7.38783C4.86012 7.38783 5.08694 7.16755 5.08694 6.89582C5.08694 6.62409 4.86012 6.40381 4.58033 6.40381C4.30054 6.40381 4.07373 6.62409 4.07373 6.89582C4.07373 7.16755 4.30054 7.38783 4.58033 7.38783Z" fill="white"/>
<path d="M10.0603 7.38783C10.3401 7.38783 10.5669 7.16755 10.5669 6.89582C10.5669 6.62409 10.3401 6.40381 10.0603 6.40381C9.78053 6.40381 9.55371 6.62409 9.55371 6.89582C9.55371 7.16755 9.78053 7.38783 10.0603 7.38783Z" fill="white"/>
<path d="M11.8865 7.38783C12.1663 7.38783 12.3931 7.16755 12.3931 6.89582C12.3931 6.62409 12.1663 6.40381 11.8865 6.40381C11.6067 6.40381 11.3799 6.62409 11.3799 6.89582C11.3799 7.16755 11.6067 7.38783 11.8865 7.38783Z" fill="white"/>
<path d="M13.7131 7.38783C13.9929 7.38783 14.2198 7.16755 14.2198 6.89582C14.2198 6.62409 13.9929 6.40381 13.7131 6.40381C13.4334 6.40381 13.2065 6.62409 13.2065 6.89582C13.2065 7.16755 13.4334 7.38783 13.7131 7.38783Z" fill="white"/>
<path d="M15.5403 7.38783C15.8201 7.38783 16.0469 7.16755 16.0469 6.89582C16.0469 6.62409 15.8201 6.40381 15.5403 6.40381C15.2605 6.40381 15.0337 6.62409 15.0337 6.89582C15.0337 7.16755 15.2605 7.38783 15.5403 7.38783Z" fill="white"/>
<path d="M6.4065 7.38783C6.68629 7.38783 6.91311 7.16755 6.91311 6.89582C6.91311 6.62409 6.68629 6.40381 6.4065 6.40381C6.12672 6.40381 5.8999 6.62409 5.8999 6.89582C5.8999 7.16755 6.12672 7.38783 6.4065 7.38783Z" fill="white"/>
<path d="M8.23268 7.38783C8.51247 7.38783 8.73928 7.16755 8.73928 6.89582C8.73928 6.62409 8.51247 6.40381 8.23268 6.40381C7.95289 6.40381 7.72607 6.62409 7.72607 6.89582C7.72607 7.16755 7.95289 7.38783 8.23268 7.38783Z" fill="white"/>
<path d="M3.25953 5.17055C3.53932 5.17055 3.76613 4.95027 3.76613 4.67853C3.76613 4.4068 3.53932 4.18652 3.25953 4.18652C2.97974 4.18652 2.75293 4.4068 2.75293 4.67853C2.75293 4.95027 2.97974 5.17055 3.25953 5.17055Z" fill="white"/>
<path d="M8.73951 5.17055C9.0193 5.17055 9.24611 4.95027 9.24611 4.67853C9.24611 4.4068 9.0193 4.18652 8.73951 4.18652C8.45972 4.18652 8.23291 4.4068 8.23291 4.67853C8.23291 4.95027 8.45972 5.17055 8.73951 5.17055Z" fill="white"/>
<path d="M10.5657 5.17055C10.8455 5.17055 11.0723 4.95027 11.0723 4.67853C11.0723 4.4068 10.8455 4.18652 10.5657 4.18652C10.2859 4.18652 10.0591 4.4068 10.0591 4.67853C10.0591 4.95027 10.2859 5.17055 10.5657 5.17055Z" fill="white"/>
<path d="M12.3933 5.17055C12.6731 5.17055 12.8999 4.95027 12.8999 4.67853C12.8999 4.4068 12.6731 4.18652 12.3933 4.18652C12.1135 4.18652 11.8867 4.4068 11.8867 4.67853C11.8867 4.95027 12.1135 5.17055 12.3933 5.17055Z" fill="white"/>
<path d="M14.2195 5.17055C14.4993 5.17055 14.7261 4.95027 14.7261 4.67853C14.7261 4.4068 14.4993 4.18652 14.2195 4.18652C13.9397 4.18652 13.7129 4.4068 13.7129 4.67853C13.7129 4.95027 13.9397 5.17055 14.2195 5.17055Z" fill="white"/>
<path d="M5.08717 5.17055C5.36696 5.17055 5.59377 4.95027 5.59377 4.67853C5.59377 4.4068 5.36696 4.18652 5.08717 4.18652C4.80738 4.18652 4.58057 4.4068 4.58057 4.67853C4.58057 4.95027 4.80738 5.17055 5.08717 5.17055Z" fill="white"/>
<path d="M6.91334 5.17055C7.19313 5.17055 7.41994 4.95027 7.41994 4.67853C7.41994 4.4068 7.19313 4.18652 6.91334 4.18652C6.63355 4.18652 6.40674 4.4068 6.40674 4.67853C6.40674 4.95027 6.63355 5.17055 6.91334 5.17055Z" fill="white"/>
<path d="M3.76832 9.37758C4.04811 9.37758 4.27492 9.1573 4.27492 8.88557C4.27492 8.61384 4.04811 8.39355 3.76832 8.39355C3.48853 8.39355 3.26172 8.61384 3.26172 8.88557C3.26172 9.1573 3.48853 9.37758 3.76832 9.37758Z" fill="white"/>
<path d="M9.24879 9.37758C9.52858 9.37758 9.75539 9.1573 9.75539 8.88557C9.75539 8.61384 9.52858 8.39355 9.24879 8.39355C8.969 8.39355 8.74219 8.61384 8.74219 8.88557C8.74219 9.1573 8.969 9.37758 9.24879 9.37758Z" fill="white"/>
<path d="M11.075 9.37758C11.3548 9.37758 11.5816 9.1573 11.5816 8.88557C11.5816 8.61384 11.3548 8.39355 11.075 8.39355C10.7952 8.39355 10.5684 8.61384 10.5684 8.88557C10.5684 9.1573 10.7952 9.37758 11.075 9.37758Z" fill="white"/>
<path d="M12.9026 9.37758C13.1824 9.37758 13.4092 9.1573 13.4092 8.88557C13.4092 8.61384 13.1824 8.39355 12.9026 8.39355C12.6228 8.39355 12.396 8.61384 12.396 8.88557C12.396 9.1573 12.6228 9.37758 12.9026 9.37758Z" fill="white"/>
<path d="M14.7263 9.37758C15.0061 9.37758 15.2329 9.1573 15.2329 8.88557C15.2329 8.61384 15.0061 8.39355 14.7263 8.39355C14.4465 8.39355 14.2197 8.61384 14.2197 8.88557C14.2197 9.1573 14.4465 9.37758 14.7263 9.37758Z" fill="white"/>
<path d="M5.59596 9.37758C5.87575 9.37758 6.10256 9.1573 6.10256 8.88557C6.10256 8.61384 5.87575 8.39355 5.59596 8.39355C5.31617 8.39355 5.08936 8.61384 5.08936 8.88557C5.08936 9.1573 5.31617 9.37758 5.59596 9.37758Z" fill="white"/>
<path d="M7.42213 9.37758C7.70192 9.37758 7.92873 9.1573 7.92873 8.88557C7.92873 8.61384 7.70192 8.39355 7.42213 8.39355C7.14234 8.39355 6.91553 8.61384 6.91553 8.88557C6.91553 9.1573 7.14234 9.37758 7.42213 9.37758Z" fill="white"/>
<path d="M17.1088 11.5863H2.05484L1.90039 10.0742H16.9522L17.1088 11.5863Z" fill="white"/>
<path d="M17.422 14.6126H2.36392L2.20947 13.1006H17.2654L17.422 14.6126Z" fill="white"/>
<path d="M17.7352 17.6365H2.67507L2.51855 16.1245H17.5786L17.7352 17.6365Z" fill="white"/>
</g>
<defs>
<filter id="filter0_d_1871_6464" x="6.48291" y="2.84961" width="20.8569" height="22.1504" filterUnits="userSpaceOnUse" color-interpolation-filters="sRGB">
<feFlood flood-opacity="0" result="BackgroundImageFix"/>
<feColorMatrix in="SourceAlpha" type="matrix" values="0 0 0 0 0 0 0 0 0 0 0 0 0 0 0 0 0 0 127 0" result="hardAlpha"/>
<feOffset dx="1" dy="1"/>
<feGaussianBlur stdDeviation="1"/>
<feComposite in2="hardAlpha" operator="out"/>
<feColorMatrix type="matrix" values="0 0 0 0 0 0 0 0 0 0 0 0 0 0 0 0 0 0 0.15 0"/>
<feBlend mode="normal" in2="BackgroundImageFix" result="effect1_dropShadow_1871_6464"/>
<feBlend mode="normal" in="SourceGraphic" in2="effect1_dropShadow_1871_6464" result="shape"/>
</filter>
<filter id="filter1_d_1871_6464" x="0" y="0" width="20.856" height="22.1484" filterUnits="userSpaceOnUse" color-interpolation-filters="sRGB">
<feFlood flood-opacity="0" result="BackgroundImageFix"/>
<feColorMatrix in="SourceAlpha" type="matrix" values="0 0 0 0 0 0 0 0 0 0 0 0 0 0 0 0 0 0 127 0" result="hardAlpha"/>
<feOffset dx="1" dy="1"/>
<feGaussianBlur stdDeviation="1"/>
<feComposite in2="hardAlpha" operator="out"/>
<feColorMatrix type="matrix" values="0 0 0 0 0 0 0 0 0 0 0 0 0 0 0 0 0 0 0.15 0"/>
<feBlend mode="normal" in2="BackgroundImageFix" result="effect1_dropShadow_1871_6464"/>
<feBlend mode="normal" in="SourceGraphic" in2="effect1_dropShadow_1871_6464" result="shape"/>
</filter>
</defs>
</svg>
