<svg version="1.1" id="Capa_1" xmlns="http://www.w3.org/2000/svg" xmlns:xlink="http://www.w3.org/1999/xlink" width="115px" height="60px" x="0px" y="0px"
	 viewBox="0 0 959.4 511.4" style="enable-background:new 0 0 959.4 511.4;" xml:space="preserve">
<style type="text/css">
	.st0{fill:none;}
	.st1{fill:#252D1C;stroke:#252D1C;stroke-width:3;stroke-miterlimit:10;}
	.st2{fill:#252D1C;stroke:#252D1C;stroke-width:3;stroke-miterlimit:9.9999;}
	.st3{fill:#252D1C;}
	.st4{fill:url(#SVGID_2_);}
	.st5{fill:#F9DE15;}
	.st6{fill:#FFFFFF;}
	.st7{fill:none;stroke:#252D1C;stroke-miterlimit:10;}
</style>
<pattern  x="-59.9" y="806.1" width="189" height="227" patternUnits="userSpaceOnUse" id="SVGID_1_" viewBox="207 -415.3 189 227" style="overflow:visible;">
	<g>
		<rect x="207" y="-415.3" class="st0" width="189" height="227"/>
		<g>
			<rect x="207" y="-415.3" class="st0" width="189" height="227"/>
			<g>
				<polygon class="st1" points="205.9,-198.8 191.8,-198.8 2.1,-9.1 9.2,-2.1 				"/>
			</g>
			<g>
				<polygon class="st1" points="205.9,-198.8 191.8,-198.8 191.1,-198.1 198.2,-191.1 				"/>
				<polygon class="st1" points="243.7,-198.8 229.6,-198.8 191.1,-160.3 198.2,-153.3 				"/>
				<polygon class="st1" points="281.5,-198.8 267.4,-198.8 191.1,-122.5 198.2,-115.5 				"/>
				<polygon class="st1" points="319.3,-198.8 305.2,-198.8 191.1,-84.7 198.2,-77.7 				"/>
				<polygon class="st1" points="357.1,-198.8 343,-198.8 191.1,-46.9 198.2,-39.9 				"/>
				<polygon class="st1" points="394.9,-198.8 380.8,-198.8 191.1,-9.1 198.2,-2.1 				"/>
			</g>
			<g>
				<polygon class="st1" points="394.9,-198.8 380.8,-198.8 380.1,-198.1 387.2,-191.1 				"/>
				<polygon class="st1" points="432.7,-198.8 418.6,-198.8 380.1,-160.3 387.2,-153.3 				"/>
				<polygon class="st1" points="470.5,-198.8 456.4,-198.8 380.1,-122.5 387.2,-115.5 				"/>
				<polygon class="st1" points="508.3,-198.8 494.2,-198.8 380.1,-84.7 387.2,-77.7 				"/>
				<polygon class="st1" points="546.1,-198.8 532,-198.8 380.1,-46.9 387.2,-39.9 				"/>
				<polygon class="st1" points="583.9,-198.8 569.8,-198.8 380.1,-9.1 387.2,-2.1 				"/>
			</g>
			<g>
				<polygon class="st1" points="205.9,-425.8 191.8,-425.8 2.1,-236.1 9.2,-229.1 				"/>
				
					<rect x="-38.6" y="-306.7" transform="matrix(0.7071 -0.7071 0.7071 0.7071 246.3082 -8.7483)" class="st2" width="302.3" height="10"/>
				<polygon class="st1" points="222.9,-367.2 215.9,-374.3 19.3,-177.7 33.5,-177.7 				"/>
				<polygon class="st1" points="222.9,-329.4 215.9,-336.5 57.1,-177.7 71.3,-177.7 				"/>
				<polygon class="st1" points="222.9,-291.6 215.9,-298.7 94.9,-177.7 109.1,-177.7 				"/>
				<polygon class="st1" points="222.9,-253.8 215.9,-260.9 132.7,-177.7 146.9,-177.7 				"/>
				<polygon class="st1" points="222.9,-216 215.9,-223.1 170.5,-177.7 184.7,-177.7 				"/>
			</g>
			<g>
				<polygon class="st1" points="205.9,-425.8 191.8,-425.8 191.1,-425.1 198.2,-418.1 				"/>
				<polygon class="st1" points="243.7,-425.8 229.6,-425.8 191.1,-387.3 198.2,-380.3 				"/>
				<polygon class="st1" points="281.5,-425.8 267.4,-425.8 191.1,-349.5 198.2,-342.5 				"/>
				<polygon class="st1" points="319.3,-425.8 305.2,-425.8 191.1,-311.7 198.2,-304.7 				"/>
				<polygon class="st1" points="357.1,-425.8 343,-425.8 191.1,-273.9 198.2,-266.9 				"/>
				<polygon class="st1" points="394.9,-425.8 380.8,-425.8 191.1,-236.1 198.2,-229.1 				"/>
				
					<rect x="150.4" y="-306.7" transform="matrix(0.7071 -0.7071 0.7071 0.7071 301.6655 124.8936)" class="st2" width="302.3" height="10"/>
				<polygon class="st1" points="411.9,-367.2 404.9,-374.3 208.3,-177.7 222.5,-177.7 				"/>
				<polygon class="st1" points="411.9,-329.4 404.9,-336.5 246.1,-177.7 260.3,-177.7 				"/>
				<polygon class="st1" points="411.9,-291.6 404.9,-298.7 283.9,-177.7 298.1,-177.7 				"/>
				<polygon class="st1" points="411.9,-253.8 404.9,-260.9 321.7,-177.7 335.9,-177.7 				"/>
				<polygon class="st1" points="411.9,-216 404.9,-223.1 359.5,-177.7 373.7,-177.7 				"/>
				<polygon class="st1" points="411.9,-178.2 404.9,-185.3 397.3,-177.7 411.5,-177.7 				"/>
			</g>
			<g>
				<polygon class="st1" points="432.7,-425.8 418.6,-425.8 380.1,-387.3 387.2,-380.3 				"/>
				<polygon class="st1" points="470.5,-425.8 456.4,-425.8 380.1,-349.5 387.2,-342.5 				"/>
				<polygon class="st1" points="508.3,-425.8 494.2,-425.8 380.1,-311.7 387.2,-304.7 				"/>
				<polygon class="st1" points="546.1,-425.8 532,-425.8 380.1,-273.9 387.2,-266.9 				"/>
				<polygon class="st1" points="583.9,-425.8 569.8,-425.8 380.1,-236.1 387.2,-229.1 				"/>
				
					<rect x="339.4" y="-306.7" transform="matrix(0.7071 -0.7071 0.7071 0.7071 357.0228 258.5354)" class="st2" width="302.3" height="10"/>
				<polygon class="st1" points="600.9,-367.2 593.9,-374.3 397.3,-177.7 411.5,-177.7 				"/>
			</g>
			<g>
				<polygon class="st1" points="222.9,-594.2 215.9,-601.3 19.3,-404.7 33.5,-404.7 				"/>
				<polygon class="st1" points="222.9,-556.4 215.9,-563.5 57.1,-404.7 71.3,-404.7 				"/>
				<polygon class="st1" points="222.9,-518.6 215.9,-525.7 94.9,-404.7 109.1,-404.7 				"/>
				<polygon class="st1" points="222.9,-480.8 215.9,-487.9 132.7,-404.7 146.9,-404.7 				"/>
				<polygon class="st1" points="222.9,-443 215.9,-450.1 170.5,-404.7 184.7,-404.7 				"/>
				<polygon class="st1" points="222.9,-405.2 215.9,-412.3 208.3,-404.7 222.5,-404.7 				"/>
			</g>
			<g>
				<polygon class="st1" points="411.9,-594.2 404.9,-601.3 208.3,-404.7 222.5,-404.7 				"/>
				<polygon class="st1" points="411.9,-556.4 404.9,-563.5 246.1,-404.7 260.3,-404.7 				"/>
				<polygon class="st1" points="411.9,-518.6 404.9,-525.7 283.9,-404.7 298.1,-404.7 				"/>
				<polygon class="st1" points="411.9,-480.8 404.9,-487.9 321.7,-404.7 335.9,-404.7 				"/>
				<polygon class="st1" points="411.9,-443 404.9,-450.1 359.5,-404.7 373.7,-404.7 				"/>
				<polygon class="st1" points="411.9,-405.2 404.9,-412.3 397.3,-404.7 411.5,-404.7 				"/>
			</g>
			<g>
				<polygon class="st1" points="600.9,-594.2 593.9,-601.3 397.3,-404.7 411.5,-404.7 				"/>
			</g>
		</g>
	</g>
</pattern>
<g id="Capa_1_1_">
</g>
<g id="Capa_2_1_">
	<g>
		<g>
			<g>
				<path class="st3" d="M741.9,0c-0.4,0-0.8,0-1.2,0l0,0H317.8c27.2,14.2,51.6,34,72.6,58.7c21.9,25.8,39.1,55.7,51.1,89
					c12.3,34.2,18.6,70.6,18.6,108s-6.2,73.8-18.6,108c-12,33.3-29.2,63.2-51.1,89c-21,24.7-45.4,44.4-72.6,58.7h422.9l0,0
					c0.4,0,0.8,0,1.2,0c120.1,0,217.5-114.5,217.5-255.7S862.1,0,741.9,0z"/>
				<pattern  id="SVGID_2_" xlink:href="#SVGID_1_" patternTransform="matrix(1 0 0 -1 1377.6013 -15879.4297)">
				</pattern>
				<path class="st4" d="M314.7,407.9c-0.4,0.1-0.9,0.3-1.2,0.4c-1.4,0.4-2.2,0.6-2.4,0.6c0.7-0.2,1.4-0.4,2-0.6
					C313.6,408.1,314.2,408,314.7,407.9z"/>
				<g>
					<path class="st5" d="M532.8,112.4v-4.6h11.3v24.3h-11.2c-0.5-4.7-2.4-8.3-5.6-10.7c-3.3-2.5-7-3.7-11.3-3.7c-3.7,0-7,1-9.9,2.9
						c-2.9,2-5.2,4.6-6.7,7.9c-1.6,3.3-2.4,7-2.4,10.9c0,6.7,1.8,12.2,5.4,16.5c3.6,4.3,8.3,6.4,14.2,6.4c9.1,0,15.5-4.2,19.2-12.6
						l10.5,5c-5.9,12.8-16,19.2-30.3,19.2c-6.4,0-12.1-1.5-17-4.5c-5-3-8.8-7.1-11.5-12.4s-4.1-11.1-4.1-17.5c0-6.3,1.4-12,4.1-17.1
						s6.5-9.1,11.3-12s10.2-4.3,16.1-4.3C521.8,106,527.8,108.2,532.8,112.4z"/>
					<path class="st5" d="M582.7,162c5.7,0,11.8-2.7,18.4-8.2V119h-11.4v-11.3h24v53h11v11.2h-23.6v-7.4c-7.4,5.7-14.5,8.5-21.1,8.5
						c-6,0-10.5-1.8-13.3-5.4c-2.8-3.6-4.3-9.5-4.3-17.8V119h-9v-11.3H575v44.7c0,3.3,0.6,5.7,1.8,7.3C578,161.3,580,162,582.7,162z
						"/>
					<path class="st5" d="M686.9,130.4v30.3h10.8v11.2h-21.9v-7.8c-6.1,6-12.9,9-20.4,9c-4,0-7.6-0.9-10.8-2.7
						c-3.3-1.8-5.9-4.3-7.9-7.4s-3-6.5-3-10.2c0-4,1.1-7.6,3.3-10.8c2.2-3.2,5.1-5.6,8.8-7.3c3.7-1.7,7.4-2.6,11.2-2.6
						c6.3,0,12.1,1.8,17.5,5.5v-6.9c0-5-1.1-8.6-3.2-10.8c-2.1-2.2-5.6-3.2-10.4-3.2c-3.4,0-6.3,0.6-8.6,1.9
						c-2.3,1.2-4.2,3.1-5.7,5.7l-12.1-3c2.7-5.1,6.4-8.9,11.1-11.4c4.6-2.5,10.2-3.8,16.6-3.8c8.6,0,14.9,2,18.8,5.9
						C684.9,115.9,686.9,122,686.9,130.4z M657.1,163.3c6.2,0,12-2.6,17.4-7.8v-7.4c-5.5-4.3-11-6.4-16.5-6.4c-3.3,0-6.2,1-8.6,3.1
						s-3.6,4.7-3.6,7.9c0,3.1,1.1,5.6,3.2,7.6C651.1,162.3,653.8,163.3,657.1,163.3z M655.1,99.4l9.4-21h18.3l-19.1,21H655.1z"/>
					<path class="st5" d="M766,128.8v31.9h10.8v11.2h-23.4v-42.4c0-4-0.6-6.9-1.7-8.7c-1.2-1.8-3.1-2.6-5.7-2.6
						c-5.6,0-11.9,2.8-18.9,8.3v34.1h11.1v11.2h-34.8v-11.2h11.3v-41.7h-11.3v-11.3h23.8v7.8c7.9-5.7,15.2-8.6,22.2-8.6
						c5.7,0,10,1.8,12.7,5.3C764.6,115.7,766,121.3,766,128.8z"/>
					<path class="st5" d="M816,107.7V119h-11.7v33.7c0,3.5,0.4,5.8,1.1,6.8c0.8,1,2,1.6,3.9,1.6c2.2,0,4.5-0.4,6.7-1.2v11.4
						c-3.9,1.1-7.1,1.7-9.5,1.7c-5.3,0-9.1-1.3-11.4-4c-2.3-2.7-3.5-7.2-3.5-13.7V119h-8.4v-11.3h8.4V98l12.6-11.5v21.3L816,107.7
						L816,107.7z"/>
					<path class="st5" d="M892.1,139.9c0,6.2-1.5,11.9-4.5,17.1s-7,9.3-12.2,12.3c-5.1,3-10.8,4.5-17,4.5c-6.4,0-12.2-1.5-17.4-4.5
						c-5.2-3-9.2-7.1-12.1-12.3c-2.9-5.2-4.3-10.9-4.3-17.1c0-6.5,1.4-12.3,4.3-17.5c2.9-5.1,6.9-9.2,12-12.1s11-4.4,17.5-4.4
						c6.3,0,12,1.5,17.2,4.6c5.1,3.1,9.2,7.2,12.1,12.4C890.6,128.2,892.1,133.8,892.1,139.9z M858.5,161.6c3.7,0,7.2-1,10.3-2.9
						c3.1-2,5.6-4.6,7.3-7.9c1.8-3.3,2.6-6.9,2.6-10.8c0-3.8-0.9-7.4-2.6-10.7c-1.8-3.3-4.2-6-7.3-8s-6.6-3-10.4-3
						c-3.7,0-7.2,1-10.3,3s-5.6,4.6-7.4,8c-1.8,3.3-2.7,6.9-2.7,10.8c0,3.8,0.9,7.4,2.7,10.8c1.8,3.3,4.3,6,7.5,7.9
						C851.2,160.6,854.7,161.6,858.5,161.6z"/>
					<path class="st5" d="M551.1,272.7h-53.8c0.8,6.1,3.2,11,7.1,14.6c4,3.6,8.9,5.3,14.7,5.3c4.2,0,8.2-0.9,11.8-2.6
						c3.6-1.8,6.7-4.4,9.1-8.1l11.1,5c-3.5,5.5-8.1,9.6-13.8,12.4c-5.7,2.8-11.9,4.2-18.5,4.2c-6.9,0-13.1-1.4-18.4-4.3
						s-9.6-6.9-12.6-12.1c-3-5.2-4.5-11-4.5-17.5c0-6.4,1.5-12.2,4.4-17.4c3-5.2,7-9.2,12.1-12.1c5.1-2.9,10.8-4.4,17-4.4
						c6.8,0,12.7,1.5,17.7,4.5c5,3,9,7.3,11.9,12.8C549.3,258.5,550.9,265.1,551.1,272.7z M517.1,246.1c-4.8,0-8.9,1.6-12.5,4.8
						s-5.9,7.4-6.9,12.7h40.2c-1.2-5.3-3.7-9.5-7.5-12.7C526.5,247.7,522.1,246.1,517.1,246.1z"/>
					<path class="st5" d="M599.5,240.1v-2.7h11v21.3h-11v-3.9c-3.7-5.3-8.7-7.9-15-7.9c-3.3,0-6.1,0.7-8.2,2.2s-3.2,3.4-3.2,5.7
						c0,2.1,0.8,3.7,2.4,4.9s5.2,2.2,10.8,3.1l8.5,1.6c12.7,2.3,19,8.5,19,18.6c0,5.9-2.3,10.6-6.9,14.2c-4.6,3.6-10.7,5.4-18.2,5.4
						c-3,0-6-0.4-8.9-1.3c-2.9-0.9-5.3-2-7.3-3.3v3.5h-11.2v-22h11.2v2.2c0.6,3.1,2.3,5.6,5.2,7.5c2.8,1.9,6.1,2.8,9.9,2.8
						c4.1,0,7.3-0.7,9.7-2.2c2.4-1.4,3.5-3.6,3.5-6.4c0-2.1-0.9-3.6-2.8-4.7c-1.9-1-5.6-2.1-11.3-3.2l-6.5-1.4
						c-6.5-1.3-11.2-3.5-14.2-6.7s-4.5-7.2-4.5-12.2c0-4,1.1-7.4,3.3-10.2c2.2-2.8,5.1-5,8.5-6.4c3.5-1.4,7-2.1,10.7-2.1
						C590.2,236.5,595.3,237.7,599.5,240.1z"/>
					<path class="st5" d="M655.5,237.4v11.3h-11.7v33.7c0,3.5,0.4,5.8,1.1,6.8c0.8,1,2,1.6,3.9,1.6c2.2,0,4.5-0.4,6.7-1.2V301
						c-3.9,1.1-7.1,1.7-9.5,1.7c-5.3,0-9.1-1.3-11.4-4c-2.3-2.7-3.5-7.2-3.5-13.7v-36.3h-8.4v-11.3h8.4v-9.7l12.6-11.5v21.3
						L655.5,237.4L655.5,237.4z"/>
					<path class="st5" d="M718.9,260v30.3h10.8v11.2h-21.9v-7.9c-6.1,6-12.9,9-20.4,9c-4,0-7.6-0.9-10.8-2.7
						c-3.3-1.8-5.9-4.3-7.9-7.4c-2-3.1-3-6.5-3-10.2c0-4,1.1-7.6,3.3-10.8c2.2-3.2,5.1-5.6,8.8-7.3c3.7-1.7,7.4-2.6,11.2-2.6
						c6.3,0,12.1,1.8,17.5,5.5v-6.9c0-5-1.1-8.6-3.2-10.8s-5.6-3.2-10.4-3.2c-3.4,0-6.3,0.6-8.6,1.9c-2.3,1.2-4.2,3.1-5.7,5.7
						l-12.1-3c2.7-5.1,6.4-8.9,11.1-11.4c4.6-2.5,10.2-3.8,16.6-3.8c8.6,0,14.9,2,18.8,5.9C716.9,245.4,718.9,251.6,718.9,260z
						 M689.1,292.9c6.2,0,12-2.6,17.4-7.8v-7.5c-5.5-4.3-11-6.4-16.5-6.4c-3.3,0-6.2,1-8.6,3.1s-3.6,4.7-3.6,7.9
						c0,3.1,1.1,5.6,3.2,7.6C683,291.9,685.7,292.9,689.1,292.9z M687,229l9.4-21h18.3l-19.1,21H687z"/>
					<path class="st5" d="M838.5,272.7h-53.8c0.8,6.1,3.2,11,7.1,14.6c4,3.6,8.9,5.3,14.7,5.3c4.2,0,8.2-0.9,11.8-2.6
						c3.6-1.8,6.7-4.4,9.1-8.1l11.1,5c-3.5,5.5-8.1,9.6-13.8,12.4c-5.7,2.8-11.9,4.2-18.5,4.2c-6.9,0-13.1-1.4-18.4-4.3
						s-9.6-6.9-12.6-12.1c-3-5.2-4.5-11-4.5-17.5c0-6.4,1.5-12.2,4.4-17.4c3-5.2,7-9.2,12.1-12.1c5.1-2.9,10.8-4.4,17-4.4
						c6.8,0,12.7,1.5,17.7,4.5c5,3,9,7.3,11.9,12.8C836.7,258.5,838.2,265.1,838.5,272.7z M804.5,246.1c-4.8,0-8.9,1.6-12.5,4.8
						s-5.9,7.4-6.9,12.7h40.2c-1.2-5.3-3.7-9.5-7.5-12.7C813.9,247.7,809.5,246.1,804.5,246.1z"/>
					<path class="st5" d="M879.4,290.3v11.2h-33.8v-11.2H857v-69.7h-11.4v-11.1h24v80.8H879.4z"/>
					<path class="st5" d="M561.8,419.9v11.2h-24.1v-9.4c-6.4,7-14.1,10.5-23,10.5c-6.2,0-11.7-1.5-16.4-4.4s-8.4-6.9-11.1-11.9
						c-2.6-5-3.9-10.5-3.9-16.6c0-6.2,1.4-11.9,4.2-17.1c2.8-5.2,6.6-9.4,11.6-12.4c4.9-3.1,10.3-4.6,16-4.6c4.2,0,8.1,0.8,11.8,2.5
						c3.7,1.7,7.3,4.3,10.8,7.9v-25.4h-12.4v-11.1h24.9v80.8H561.8z M517.1,421c3.9,0,7.4-1,10.6-3.1c3.1-2.1,5.6-4.8,7.4-8.3
						s2.7-7.2,2.7-11.1c0-4-0.9-7.6-2.7-10.9c-1.8-3.3-4.3-5.9-7.5-7.8c-3.2-1.9-6.8-2.9-10.8-2.9c-3.9,0-7.3,1-10.4,3.1
						c-3,2.1-5.4,4.8-7.2,8.2s-2.6,7-2.6,10.9c0,4.2,0.9,7.9,2.7,11.2s4.2,6,7.3,7.9C509.8,420.1,513.2,421,517.1,421z"/>
					<path class="st5" d="M635.6,399.1c0,6.2-1.5,11.9-4.5,17.1c-3,5.2-7,9.3-12.2,12.3c-5.1,3-10.8,4.5-17,4.5
						c-6.4,0-12.2-1.5-17.4-4.5c-5.2-3-9.2-7.1-12.1-12.3c-2.9-5.2-4.3-10.9-4.3-17.1c0-6.5,1.4-12.3,4.3-17.5
						c2.9-5.1,6.9-9.2,12-12.1c5.1-2.9,11-4.4,17.5-4.4c6.3,0,12,1.5,17.2,4.6c5.1,3.1,9.2,7.2,12.1,12.4
						C634.1,387.4,635.6,393,635.6,399.1z M601.9,420.8c3.7,0,7.2-1,10.3-2.9c3.1-2,5.6-4.6,7.3-7.9c1.8-3.3,2.6-6.9,2.6-10.8
						c0-3.8-0.9-7.4-2.6-10.7c-1.8-3.3-4.2-6-7.3-8s-6.6-3-10.4-3c-3.7,0-7.2,1-10.3,3s-5.6,4.6-7.4,8c-1.8,3.3-2.7,6.9-2.7,10.8
						c0,3.8,0.9,7.4,2.7,10.8c1.8,3.3,4.3,6,7.5,7.9C594.7,419.8,598.2,420.8,601.9,420.8z M595.9,358.6l9.4-21h18.3l-19.1,21H595.9
						z"/>
					<path class="st5" d="M676.5,419.9v11.2h-33.8v-11.2h11.4v-69.7h-11.4v-11.1h24v80.8H676.5z"/>
					<path class="st5" d="M739.9,389.6v30.3h10.8v11.2h-21.9v-7.9c-6.1,6-12.9,9-20.4,9c-4,0-7.6-0.9-10.8-2.7
						c-3.3-1.8-5.9-4.3-7.9-7.4c-2-3.1-3-6.5-3-10.2c0-4,1.1-7.6,3.3-10.8c2.2-3.2,5.1-5.6,8.8-7.3c3.7-1.7,7.4-2.6,11.2-2.6
						c6.3,0,12.1,1.8,17.5,5.5v-6.9c0-5-1.1-8.6-3.2-10.8s-5.6-3.2-10.4-3.2c-3.4,0-6.3,0.6-8.6,1.9c-2.3,1.2-4.2,3.1-5.7,5.7
						l-12.1-3c2.7-5.1,6.4-8.9,11.1-11.4c4.6-2.5,10.2-3.8,16.6-3.8c8.6,0,14.9,2,18.8,5.9C737.9,375,739.9,381.2,739.9,389.6z
						 M710.1,422.5c6.2,0,12-2.6,17.4-7.8v-7.5c-5.5-4.3-11-6.4-16.5-6.4c-3.3,0-6.2,1-8.6,3.1s-3.6,4.7-3.6,7.9
						c0,3.1,1.1,5.6,3.2,7.6C704,421.5,706.8,422.5,710.1,422.5z"/>
					<path class="st5" d="M781.2,405.4v14.5h14v11.2h-39.4v-11.2h12.9v-41.7h-12.9v-11.3h22.9v14.5c2.6-5.7,5.8-9.7,9.6-12
						c3.8-2.3,9.3-3.4,16.3-3.4h2.9v12.8h-2.7c-6.8,0-11.9,0.9-15.3,2.7c-3.3,1.8-5.5,4.5-6.6,8.1
						C781.7,393.3,781.2,398.5,781.2,405.4z"/>
				</g>
			</g>
		</g>
		<g>
			<path class="st3" d="M217.5,0C97.4,0,0,114.5,0,255.7s97.4,255.7,217.5,255.7s217.6-114.5,217.6-255.7S337.7,0,217.5,0z"/>
			<g>
				<g>
					<g>
						<g>
							<path class="st6" d="M369.4,300.6c-2.8,23.5-11,58-14.6,66.6c-6.3,15.1-10.8,23.2-17.3,31.5c-1.2,1.6-2.5,3.1-3.9,4.7
								c-8.3,8.2-16.6,11.8-21.2,13.2c-2,0.6-3.3,0.9-3.6,0.9c-0.2,0.5-0.6,2.1-1.8,6c-1.3,4.1-2.8,8.9-4.6,13.8
								c-1.6,4.6-3.5,9.4-5.5,13.9c-1.9,4.4-4,8.6-6.2,12.2c-0.9,1.4-1.8,2.8-2.7,4c-1.8,2.5-3.8,4.8-5.9,6.8
								c-3.2,3.2-6.7,5.9-10.2,8.2c-4.2,2.8-8.6,5-12.7,6.7c-5.2,2.2-10,3.6-13.8,4.6c-4.7,1.2-7.8,1.6-7.8,1.6
								c-2.9,0.3-5.7,0.6-8.5,0.7c-0.1,0-0.1,0-0.2,0c-0.2,0-0.4,0-0.7,0c-0.6,0-1.1,0-1.7,0c-0.3,0-0.6,0-0.8,0
								c-5.9,0-11.9-0.8-18.9-3.1c-7.5-2.5-16-6.7-26.5-13.6c-11-7.2-24.2-17.5-40.6-31.7c-41.6-36.2-53.4-63.4-56.7-75.2l-1-13.3
								l1.3-29.6c0,0-0.4-0.3-0.9-0.7c-2.4-1.9-8.7-6.8-9.3-7.5c-3.4-4-6.5-8.9-8.1-14c-2.2-7.4-1-16.2,5.5-21.2
								c6.4-4.9,9.1,1.4,13.1,2.5c1,0.3,2.1,0.2,3.3-0.5c0.4-0.2,0.9-0.5,1.4-0.9c5.1-4.3-0.4-9.6-2.2-13.8
								C79.7,259,83.9,232,93,219.2c10.3-14.4,21.5-23.5,22.3-42.4c1.3-31.8-8.6-63.4-4.8-95.2c2.7-23.1,18-39.8,38.4-49.8
								c32.4-15.8,65.2-19.4,100.2-9.1c15.3,4.5,31.6,5,46.1,11.6c40.3,18.4,55.4,60.5,61.3,79.4c3.3,10.5,9.2,35.9,9.2,49.2
								c0,13.4-1,55.4-1.6,61c-0.5,5.7,2.1,7.5,4.6,17C374,261.1,370.3,293,369.4,300.6z"/>
							<path class="st6" d="M183.6,19.6C301-5,369.3,80.3,365.6,162.9C365.6,162.9,179.8,20.3,183.6,19.6z"/>
							<path class="st6" d="M337.5,398.7c-1.2,1.6-2.5,3.1-3.9,4.7c-8.3,8.2-16.6,11.8-21.2,13.2c-2,0.6-3.3,0.9-3.6,0.9
								c-0.2,0.5-0.6,2.1-1.8,6c-1.3,4.1-2.8,8.9-4.6,13.8c-1.6,4.6-3.5,9.4-5.5,13.9c-1.9,4.4-4,8.6-6.2,12.2
								c-0.9,1.4-1.8,2.8-2.7,4c-1.8,2.5-3.8,4.8-5.9,6.8c-3.2,3.2-6.7,5.9-10.2,8.2c-4.2,2.8-8.6,5-12.7,6.7
								c-5.2,2.2-10,3.6-13.8,4.6c-4.7,1.2-7.8,1.6-7.8,1.6c-2.9,0.3-5.7,0.6-8.5,0.7c-0.1,0-0.1,0-0.2,0c-0.8,0-1.6,0-2.4,0.1
								c-0.3,0-0.6,0-0.8,0c-38.1,0.3-69.5-11.9-93.1-31.4c-0.3-0.2-0.6-0.5-0.9-0.7c-0.5-0.4-1.1-0.9-1.6-1.4
								c-0.4-0.4-0.9-0.8-1.3-1.2c-25.9-23.1-41.8-55.3-45.9-88.9l-1-13.3l1.3-29.6c0,0-0.4-0.3-0.9-0.7c0.3-15.8,0.8-34.6,1.2-40.3
								c1,0.3,2.1,0.2,3.3-0.5l245.6,46.6C331.6,356.1,335.8,377.4,337.5,398.7z"/>
							<g>
								<path class="st3" d="M234.8,270.2c0,0,6.6,11.7,40.1,11.7s29.6-20.8,27.6-25.8c-2-5.1-16.9-50.3-13.4-73.9
									c0,0,1-12.2,14.6-15.9c13.6-3.7,42.9-13.1,49.4,1c6.5,14.2,4.1,16.3,4.1,16.3s-6.2-16.7-29.5-10.7s-27.2,12.1-25.2,31.8
									c1.9,19.7,6.5,37,9.3,49.4s-0.4,27.8-21.3,33.6C278.1,291.1,241.8,290.5,234.8,270.2z"/>
								<path class="st3" d="M214.1,202c0,6.6-5.3,11.9-11.9,11.9c-5.6,0-10.3-3.8-11.6-9c-0.2-0.9-0.4-1.9-0.4-2.9
									c0-0.4,0-0.8,0.1-1.2c0.9-0.9,1.8-2,2.8-3.4c0,0,3.7-5.4,13.4-6.6c2.3,0.9,4.2,2.5,5.6,4.5
									C213.3,197.3,214.1,199.6,214.1,202z"/>
								<path class="st3" d="M330.3,208.1c0,6.6-5.3,11.9-11.9,11.9s-11.9-5.3-11.9-11.9c0-3.7,1.7-7,4.3-9.2c3-1,7.4-1.9,12.2-1.9
									c2.4,1,4.4,2.7,5.7,4.9C329.7,203.8,330.3,205.9,330.3,208.1z"/>
								<path class="st3" d="M236.1,214c-4.6,0.6-9.2-4.9-10-7.8c-1.3-4.9-6.7-10.8-14.1-10.8s-10.7,0.6-17.9,6.9
									c-1.3,1.1-2.5,2-3.6,2.6c-5.3,3.1-8.9,1.7-8.9,1.7c-1.4-0.9,2.6,0.4,8.6-5.8c0.9-0.9,1.8-2,2.8-3.4c0,0,3.7-5.4,13.4-6.6
									c2.2-0.3,4.7-0.4,7.6-0.1c9.9,0.9,13.4,6.1,15.4,14.3c1.3,5.2,4.7,7.3,6.2,7.9C236.8,213.5,236.1,214,236.1,214z"/>
								<path class="st3" d="M337,220.1c0,0-0.3-0.3-0.1-0.6c0.7-0.8,7.9-6.6,2.5-11.8c-2-2-6-4.4-10.8-5.7
									c-3.5-0.9-7.4-1.2-11.3-0.3c-3.7,0.9-7.2,5.7-10.6,9.3c0,0-1.7-8.2-0.4-10c0.3-0.4,1.9-1.3,4.3-2c3-1,7.4-1.9,12.2-1.9
									c6.5,0.1,13.7,1.8,19.6,7.5C342.6,204.6,349.4,215.5,337,220.1z"/>
								<path class="st3" d="M305.5,338.7c-3-0.1-8.7-12.1-18.7-8.9c-2,0.6-3.7,2.1-7.6,2.3c-2.6,0.1-5.3-1-9.6-2.3
									c-6.1-2-13-1.7-18.9,1.8s-10.8,3.8-30.3-1.8c0,0-12.5-4.4-17.2-1.3c0,0-0.9,1,1,1c3.7,0,8.5,0.1,18.1,4.6
									c10.1,4.8,18.6,4.5,22.5,4c8.7-1,10.3-2.3,16.4-2.6c7.1-0.3,11.1,1.6,17.6,1.5c4.6-0.1,9.2-1.6,13.5-1.1
									c4,0.4,9.9,3.7,12.5,3.7C306.3,339.8,306.3,338.7,305.5,338.7z"/>
								<path class="st3" d="M246.5,173.3c0.6,0.8-5.2,9.8-10.6,8.5c0,0-14.3-5.2-18-6.4c0,0,0,0-0.1,0c-3-0.9-6.3-1.8-10.1-2.6
									c-0.4-0.1-0.9-0.2-1.3-0.3c-13.3-2.7-21.5,0.4-26.3,4c-4.4,3.3-5.9,7-5.9,7s-1.6-1.2,0.9-8.1c0.3-0.9,0.7-1.8,1.1-2.9
									c0.7-1.6,1.5-3.3,2.6-5.4c4.1-7.9,16.3-8.4,29-6.8c3,0.4,6.1,1,9.1,1.6c6.9,1.4,13.3,3,18.1,4.2
									C243.2,168.1,246.3,173,246.5,173.3z"/>
							</g>
						</g>
						<path class="st7" d="M327.1,415.4c-6.7,3.1-13.7,5.8-20.8,8c4.5-2,9-4.1,13.2-6.5l0,0C322.1,416.5,324.6,416,327.1,415.4z"/>
						<path class="st3" d="M319.5,416.9c-4.3,2.4-8.7,4.6-13.2,6.5c-14,4.2-28.9,6.5-44.3,6.5c-24.1,0-46.9-5.5-67.2-15.4
							c8.9,3,18.5,4.6,28.4,4.6c7.7,0,15.1-1,22.2-2.8s14.5-2.8,22.2-2.8c6.1,0,12.1,0.6,17.9,1.8l0,0c1,0.3,2.1,0.5,3.2,0.7l0,0
							c5.8,1.2,11.7,1.8,17.9,1.8C310.9,417.8,315.3,417.5,319.5,416.9z"/>
					</g>
				</g>
			</g>
			<path class="st6" d="M83.3,329.6c0,0-41.7-23.2-18-71.9c4.9-13.2,33.3-44,37.8-51.7s13.5,74.9,13.5,74.9L83.3,329.6z"/>
		</g>
	</g>
</g>
</svg>